<mxfile host="app.diagrams.net" agent="Mozilla/5.0 (Windows NT 10.0; Win64; x64) AppleWebKit/537.36 (KHTML, like Gecko) Chrome/136.0.0.0 Safari/537.36 Edg/136.0.0.0" version="26.2.13" pages="2">
  <diagram name="引擎基本类uml" id="4lmR1PK2h9kwDvhIEaK2">
    <mxGraphModel dx="1183" dy="655" grid="1" gridSize="10" guides="1" tooltips="1" connect="1" arrows="1" fold="1" page="1" pageScale="1" pageWidth="827" pageHeight="1169" math="0" shadow="0">
      <root>
        <mxCell id="0" />
        <mxCell id="1" parent="0" />
        <mxCell id="KuhfJUlCWqwtM39AnZdV-1" value="&lt;div style=&quot;background-color: rgb(38, 38, 38); color: rgb(208, 208, 208);&quot;&gt;&lt;pre style=&quot;text-align: center; font-family: &amp;quot;JetBrains Mono&amp;quot;, monospace; font-size: 10.5pt;&quot;&gt;PiccoloEngine&lt;/pre&gt;&lt;/div&gt;&lt;hr size=&quot;1&quot; style=&quot;border-style:solid;&quot;&gt;&lt;p style=&quot;margin:0px;margin-left:4px;&quot;&gt;+ field: Type&lt;/p&gt;&lt;hr size=&quot;1&quot; style=&quot;border-style:solid;&quot;&gt;&lt;p style=&quot;margin:0px;margin-left:4px;&quot;&gt;+&amp;nbsp;&lt;span style=&quot;color: rgb(57, 204, 155); font-family: &amp;quot;JetBrains Mono&amp;quot;, monospace; font-size: 10.5pt; background-color: rgb(38, 38, 38);&quot;&gt;startEngine&lt;/span&gt;&lt;span style=&quot;background-color: transparent; color: light-dark(rgb(0, 0, 0), rgb(255, 255, 255));&quot;&gt;(&lt;/span&gt;&lt;span style=&quot;font-family: &amp;quot;JetBrains Mono&amp;quot;, monospace; font-size: 10.5pt; background-color: rgb(38, 38, 38); color: rgb(108, 149, 235);&quot;&gt;const &lt;/span&gt;&lt;span style=&quot;font-family: &amp;quot;JetBrains Mono&amp;quot;, monospace; font-size: 10.5pt; background-color: rgb(38, 38, 38); color: rgb(193, 145, 255);&quot;&gt;std&lt;/span&gt;&lt;span style=&quot;font-family: &amp;quot;JetBrains Mono&amp;quot;, monospace; font-size: 10.5pt; background-color: rgb(38, 38, 38); color: rgb(208, 208, 208);&quot;&gt;::&lt;/span&gt;&lt;span style=&quot;font-family: &amp;quot;JetBrains Mono&amp;quot;, monospace; font-size: 10.5pt; background-color: rgb(38, 38, 38); color: rgb(193, 145, 255);&quot;&gt;string&lt;/span&gt;&lt;span style=&quot;font-family: &amp;quot;JetBrains Mono&amp;quot;, monospace; font-size: 10.5pt; background-color: rgb(38, 38, 38); color: rgb(189, 189, 189);&quot;&gt;&amp;amp; config_file_path&lt;/span&gt;&lt;span style=&quot;background-color: transparent; color: light-dark(rgb(0, 0, 0), rgb(255, 255, 255));&quot;&gt;): void&lt;/span&gt;&lt;/p&gt;&lt;p style=&quot;margin:0px;margin-left:4px;&quot;&gt;&lt;span style=&quot;background-color: transparent; color: light-dark(rgb(0, 0, 0), rgb(255, 255, 255));&quot;&gt;+&lt;/span&gt;&lt;/p&gt;" style="verticalAlign=top;align=left;overflow=fill;html=1;whiteSpace=wrap;" vertex="1" parent="1">
          <mxGeometry x="110" y="100" width="440" height="170" as="geometry" />
        </mxCell>
      </root>
    </mxGraphModel>
  </diagram>
  <diagram id="ly-EkyqUDZ3NtOaoAh6M" name="引擎初始化时序图">
    <mxGraphModel dx="979" dy="542" grid="1" gridSize="10" guides="1" tooltips="1" connect="1" arrows="1" fold="1" page="1" pageScale="1" pageWidth="827" pageHeight="1169" math="0" shadow="0">
      <root>
        <mxCell id="0" />
        <mxCell id="1" parent="0" />
        <mxCell id="WONwCe0aJF3J5grba5Dm-1" value="main" style="shape=umlLifeline;perimeter=lifelinePerimeter;whiteSpace=wrap;html=1;container=1;dropTarget=0;collapsible=0;recursiveResize=0;outlineConnect=0;portConstraint=eastwest;newEdgeStyle={&quot;curved&quot;:0,&quot;rounded&quot;:0};" vertex="1" parent="1">
          <mxGeometry x="90" y="70" width="100" height="1040" as="geometry" />
        </mxCell>
        <mxCell id="WONwCe0aJF3J5grba5Dm-2" value="&lt;div style=&quot;background-color:#262626;color:#d0d0d0&quot;&gt;&lt;pre style=&quot;font-family:&#39;JetBrains Mono&#39;,monospace;font-size:10.5pt;&quot;&gt;main&lt;/pre&gt;&lt;/div&gt;" style="html=1;points=[[0,0,0,0,5],[0,1,0,0,-5],[1,0,0,0,5],[1,1,0,0,-5]];perimeter=orthogonalPerimeter;outlineConnect=0;targetShapes=umlLifeline;portConstraint=eastwest;newEdgeStyle={&quot;curved&quot;:0,&quot;rounded&quot;:0};" vertex="1" parent="WONwCe0aJF3J5grba5Dm-1">
          <mxGeometry x="45" y="90" width="10" height="900" as="geometry" />
        </mxCell>
        <mxCell id="WONwCe0aJF3J5grba5Dm-3" value="dispatch" style="html=1;verticalAlign=bottom;startArrow=oval;endArrow=block;startSize=8;curved=0;rounded=0;entryX=0;entryY=0;entryDx=0;entryDy=5;" edge="1" target="WONwCe0aJF3J5grba5Dm-2" parent="WONwCe0aJF3J5grba5Dm-1">
          <mxGeometry relative="1" as="geometry">
            <mxPoint x="-30" y="95" as="sourcePoint" />
          </mxGeometry>
        </mxCell>
        <mxCell id="WONwCe0aJF3J5grba5Dm-4" value="&lt;div style=&quot;background-color:#262626;color:#d0d0d0&quot;&gt;&lt;pre style=&quot;font-family:&#39;JetBrains Mono&#39;,monospace;font-size:10.5pt;&quot;&gt;PiccoloEngine&lt;/pre&gt;&lt;/div&gt;" style="shape=umlLifeline;perimeter=lifelinePerimeter;whiteSpace=wrap;html=1;container=1;dropTarget=0;collapsible=0;recursiveResize=0;outlineConnect=0;portConstraint=eastwest;newEdgeStyle={&quot;curved&quot;:0,&quot;rounded&quot;:0};" vertex="1" parent="1">
          <mxGeometry x="310" y="70" width="100" height="1020" as="geometry" />
        </mxCell>
        <mxCell id="WONwCe0aJF3J5grba5Dm-5" value="&lt;div style=&quot;background-color:#262626;color:#d0d0d0&quot;&gt;&lt;pre style=&quot;font-family:&#39;JetBrains Mono&#39;,monospace;font-size:10.5pt;&quot;&gt;&lt;span style=&quot;color:#c191ff;&quot;&gt;PiccoloEngine&lt;/span&gt;&lt;/pre&gt;&lt;/div&gt;" style="html=1;points=[[0,0,0,0,5],[0,1,0,0,-5],[1,0,0,0,5],[1,1,0,0,-5]];perimeter=orthogonalPerimeter;outlineConnect=0;targetShapes=umlLifeline;portConstraint=eastwest;newEdgeStyle={&quot;curved&quot;:0,&quot;rounded&quot;:0};" vertex="1" parent="WONwCe0aJF3J5grba5Dm-4">
          <mxGeometry x="45" y="110" width="10" height="80" as="geometry" />
        </mxCell>
        <mxCell id="WONwCe0aJF3J5grba5Dm-8" value="&lt;div style=&quot;background-color:#262626;color:#d0d0d0&quot;&gt;&lt;pre style=&quot;font-family:&#39;JetBrains Mono&#39;,monospace;font-size:10.5pt;&quot;&gt;startEngine&lt;/pre&gt;&lt;/div&gt;" style="html=1;points=[[0,0,0,0,5],[0,1,0,0,-5],[1,0,0,0,5],[1,1,0,0,-5]];perimeter=orthogonalPerimeter;outlineConnect=0;targetShapes=umlLifeline;portConstraint=eastwest;newEdgeStyle={&quot;curved&quot;:0,&quot;rounded&quot;:0};" vertex="1" parent="WONwCe0aJF3J5grba5Dm-4">
          <mxGeometry x="45" y="220" width="10" height="190" as="geometry" />
        </mxCell>
        <mxCell id="WONwCe0aJF3J5grba5Dm-6" value="dispatch" style="html=1;verticalAlign=bottom;endArrow=block;curved=0;rounded=0;entryX=0;entryY=0;entryDx=0;entryDy=5;" edge="1" target="WONwCe0aJF3J5grba5Dm-5" parent="1" source="WONwCe0aJF3J5grba5Dm-2">
          <mxGeometry relative="1" as="geometry">
            <mxPoint x="150" y="185" as="sourcePoint" />
          </mxGeometry>
        </mxCell>
        <mxCell id="WONwCe0aJF3J5grba5Dm-9" value="config_file_path" style="html=1;verticalAlign=bottom;endArrow=block;curved=0;rounded=0;entryX=0;entryY=0;entryDx=0;entryDy=5;" edge="1" target="WONwCe0aJF3J5grba5Dm-8" parent="1">
          <mxGeometry x="0.0047" relative="1" as="geometry">
            <mxPoint x="140" y="295" as="sourcePoint" />
            <mxPoint as="offset" />
          </mxGeometry>
        </mxCell>
        <mxCell id="WONwCe0aJF3J5grba5Dm-14" value="&lt;div style=&quot;background-color:#262626;color:#d0d0d0&quot;&gt;&lt;pre style=&quot;font-family:&#39;JetBrains Mono&#39;,monospace;font-size:10.5pt;&quot;&gt;&lt;span style=&quot;color:#c191ff;&quot;&gt;TypeMetaRegister&lt;/span&gt;&lt;/pre&gt;&lt;/div&gt;" style="shape=umlLifeline;perimeter=lifelinePerimeter;whiteSpace=wrap;html=1;container=1;dropTarget=0;collapsible=0;recursiveResize=0;outlineConnect=0;portConstraint=eastwest;newEdgeStyle={&quot;curved&quot;:0,&quot;rounded&quot;:0};" vertex="1" parent="1">
          <mxGeometry x="530" y="70" width="140" height="990" as="geometry" />
        </mxCell>
        <mxCell id="WONwCe0aJF3J5grba5Dm-15" value="&lt;div style=&quot;background-color:#262626;color:#d0d0d0&quot;&gt;&lt;pre style=&quot;font-family:&#39;JetBrains Mono&#39;,monospace;font-size:10.5pt;&quot;&gt;metaRegister&lt;/pre&gt;&lt;/div&gt;" style="html=1;points=[[0,0,0,0,5],[0,1,0,0,-5],[1,0,0,0,5],[1,1,0,0,-5]];perimeter=orthogonalPerimeter;outlineConnect=0;targetShapes=umlLifeline;portConstraint=eastwest;newEdgeStyle={&quot;curved&quot;:0,&quot;rounded&quot;:0};" vertex="1" parent="WONwCe0aJF3J5grba5Dm-14">
          <mxGeometry x="65" y="220" width="10" height="80" as="geometry" />
        </mxCell>
        <mxCell id="WONwCe0aJF3J5grba5Dm-16" value="dispatch" style="html=1;verticalAlign=bottom;endArrow=block;curved=0;rounded=0;entryX=0;entryY=0;entryDx=0;entryDy=5;" edge="1" target="WONwCe0aJF3J5grba5Dm-15" parent="1">
          <mxGeometry relative="1" as="geometry">
            <mxPoint x="360" y="295" as="sourcePoint" />
          </mxGeometry>
        </mxCell>
        <mxCell id="WONwCe0aJF3J5grba5Dm-18" value="注册反射元数据" style="text;html=1;align=center;verticalAlign=middle;resizable=0;points=[];autosize=1;strokeColor=none;fillColor=none;" vertex="1" parent="1">
          <mxGeometry x="610" y="288" width="110" height="30" as="geometry" />
        </mxCell>
        <mxCell id="WONwCe0aJF3J5grba5Dm-19" value="&lt;div style=&quot;background-color:#262626;color:#d0d0d0&quot;&gt;&lt;pre style=&quot;font-family:&#39;JetBrains Mono&#39;,monospace;font-size:10.5pt;&quot;&gt;RuntimeGlobalContext&lt;/pre&gt;&lt;/div&gt;" style="shape=umlLifeline;perimeter=lifelinePerimeter;whiteSpace=wrap;html=1;container=1;dropTarget=0;collapsible=0;recursiveResize=0;outlineConnect=0;portConstraint=eastwest;newEdgeStyle={&quot;curved&quot;:0,&quot;rounded&quot;:0};" vertex="1" parent="1">
          <mxGeometry x="760" y="70" width="150" height="1020" as="geometry" />
        </mxCell>
        <mxCell id="WONwCe0aJF3J5grba5Dm-20" value="&lt;div style=&quot;background-color:#262626;color:#d0d0d0&quot;&gt;&lt;pre style=&quot;font-family:&#39;JetBrains Mono&#39;,monospace;font-size:10.5pt;&quot;&gt;startSystems&lt;/pre&gt;&lt;/div&gt;" style="html=1;points=[[0,0,0,0,5],[0,1,0,0,-5],[1,0,0,0,5],[1,1,0,0,-5]];perimeter=orthogonalPerimeter;outlineConnect=0;targetShapes=umlLifeline;portConstraint=eastwest;newEdgeStyle={&quot;curved&quot;:0,&quot;rounded&quot;:0};" vertex="1" parent="WONwCe0aJF3J5grba5Dm-19">
          <mxGeometry x="70" y="340" width="10" height="80" as="geometry" />
        </mxCell>
        <mxCell id="WONwCe0aJF3J5grba5Dm-21" value="config_file_path" style="html=1;verticalAlign=bottom;endArrow=block;curved=0;rounded=0;entryX=0;entryY=0;entryDx=0;entryDy=5;" edge="1" target="WONwCe0aJF3J5grba5Dm-20" parent="1">
          <mxGeometry relative="1" as="geometry">
            <mxPoint x="360" y="415" as="sourcePoint" />
          </mxGeometry>
        </mxCell>
        <mxCell id="WONwCe0aJF3J5grba5Dm-23" value="根据配置文件初始化各系统" style="text;html=1;align=center;verticalAlign=middle;resizable=0;points=[];autosize=1;strokeColor=none;fillColor=none;" vertex="1" parent="1">
          <mxGeometry x="827" y="390" width="170" height="30" as="geometry" />
        </mxCell>
      </root>
    </mxGraphModel>
  </diagram>
</mxfile>
